<?xml version="1.0" encoding="UTF-8"?>
<svg xmlns="http://www.w3.org/2000/svg" xmlns:xlink="http://www.w3.org/1999/xlink" stroke-dasharray="none" shape-rendering="auto" font-family="'Dialog'" width="1222" text-rendering="auto" fill-opacity="1" contentScriptType="text/ecmascript" color-interpolation="auto" color-rendering="auto" preserveAspectRatio="xMidYMid meet" font-size="12" viewBox="0 0 1222 1480" fill="black" stroke="black" image-rendering="auto" stroke-miterlimit="10" zoomAndPan="magnify" version="1.0" stroke-linecap="square" stroke-linejoin="miter" contentStyleType="text/css" font-style="normal" height="1480" stroke-width="1" stroke-dashoffset="0" font-weight="normal" stroke-opacity="1">
  <!--Generated by the Batik Graphics2D SVG Generator-->
  <defs id="genericDefs" />
  <g>
    <defs id="defs1">
      <clipPath clipPathUnits="userSpaceOnUse" id="clipPath1">
        <path d="M315 9 L387 9 L387 41 L315 41 L315 9 Z" />
      </clipPath>
      <clipPath clipPathUnits="userSpaceOnUse" id="clipPath2">
        <path d="M315 9 L392 9 L392 41 L315 41 L315 9 Z" />
      </clipPath>
      <clipPath clipPathUnits="userSpaceOnUse" id="clipPath3">
        <path d="M345 39 L357 39 L357 1471 L345 1471 L345 39 Z" />
      </clipPath>
      <clipPath clipPathUnits="userSpaceOnUse" id="clipPath4">
        <path d="M415 9 L537 9 L537 61 L415 61 L415 9 Z" />
      </clipPath>
      <clipPath clipPathUnits="userSpaceOnUse" id="clipPath5">
        <path d="M415 9 L541 9 L541 61 L415 61 L415 9 Z" />
      </clipPath>
      <clipPath clipPathUnits="userSpaceOnUse" id="clipPath6">
        <path d="M415 9 L540 9 L540 61 L415 61 L415 9 Z" />
      </clipPath>
      <clipPath clipPathUnits="userSpaceOnUse" id="clipPath7">
        <path d="M470 59 L482 59 L482 1471 L470 1471 L470 59 Z" />
      </clipPath>
      <clipPath clipPathUnits="userSpaceOnUse" id="clipPath8">
        <path d="M545 9 L666 9 L666 61 L545 61 L545 9 Z" />
      </clipPath>
      <clipPath clipPathUnits="userSpaceOnUse" id="clipPath9">
        <path d="M545 9 L671 9 L671 61 L545 61 L545 9 Z" />
      </clipPath>
      <clipPath clipPathUnits="userSpaceOnUse" id="clipPath10">
        <path d="M545 9 L669 9 L669 61 L545 61 L545 9 Z" />
      </clipPath>
      <clipPath clipPathUnits="userSpaceOnUse" id="clipPath11">
        <path d="M545 9 L670 9 L670 61 L545 61 L545 9 Z" />
      </clipPath>
      <clipPath clipPathUnits="userSpaceOnUse" id="clipPath12">
        <path d="M599 59 L611 59 L611 1471 L599 1471 L599 59 Z" />
      </clipPath>
      <clipPath clipPathUnits="userSpaceOnUse" id="clipPath13">
        <path d="M594 509 L616 509 L616 551 L594 551 L594 509 Z" />
      </clipPath>
      <clipPath clipPathUnits="userSpaceOnUse" id="clipPath14">
        <path d="M615 509 L678 509 L678 533 L615 533 L615 509 Z" />
      </clipPath>
      <clipPath clipPathUnits="userSpaceOnUse" id="clipPath15">
        <path d="M594 809 L616 809 L616 851 L594 851 L594 809 Z" />
      </clipPath>
      <clipPath clipPathUnits="userSpaceOnUse" id="clipPath16">
        <path d="M615 809 L678 809 L678 833 L615 833 L615 809 Z" />
      </clipPath>
      <clipPath clipPathUnits="userSpaceOnUse" id="clipPath17">
        <path d="M674 9 L806 9 L806 61 L674 61 L674 9 Z" />
      </clipPath>
      <clipPath clipPathUnits="userSpaceOnUse" id="clipPath18">
        <path d="M674 9 L809 9 L809 61 L674 61 L674 9 Z" />
      </clipPath>
      <clipPath clipPathUnits="userSpaceOnUse" id="clipPath19">
        <path d="M674 9 L810 9 L810 61 L674 61 L674 9 Z" />
      </clipPath>
      <clipPath clipPathUnits="userSpaceOnUse" id="clipPath20">
        <path d="M734 59 L746 59 L746 1471 L734 1471 L734 59 Z" />
      </clipPath>
      <clipPath clipPathUnits="userSpaceOnUse" id="clipPath21">
        <path d="M814 9 L948 9 L948 61 L814 61 L814 9 Z" />
      </clipPath>
      <clipPath clipPathUnits="userSpaceOnUse" id="clipPath22">
        <path d="M814 9 L953 9 L953 61 L814 61 L814 9 Z" />
      </clipPath>
      <clipPath clipPathUnits="userSpaceOnUse" id="clipPath23">
        <path d="M814 9 L951 9 L951 61 L814 61 L814 9 Z" />
      </clipPath>
      <clipPath clipPathUnits="userSpaceOnUse" id="clipPath24">
        <path d="M875 59 L887 59 L887 1471 L875 1471 L875 59 Z" />
      </clipPath>
      <clipPath clipPathUnits="userSpaceOnUse" id="clipPath25">
        <path d="M870 689 L892 689 L892 731 L870 731 L870 689 Z" />
      </clipPath>
      <clipPath clipPathUnits="userSpaceOnUse" id="clipPath26">
        <path d="M891 689 L954 689 L954 713 L891 713 L891 689 Z" />
      </clipPath>
      <clipPath clipPathUnits="userSpaceOnUse" id="clipPath27">
        <path d="M870 389 L892 389 L892 431 L870 431 L870 389 Z" />
      </clipPath>
      <clipPath clipPathUnits="userSpaceOnUse" id="clipPath28">
        <path d="M891 389 L940 389 L940 413 L891 413 L891 389 Z" />
      </clipPath>
      <clipPath clipPathUnits="userSpaceOnUse" id="clipPath29">
        <path d="M870 749 L892 749 L892 791 L870 791 L870 749 Z" />
      </clipPath>
      <clipPath clipPathUnits="userSpaceOnUse" id="clipPath30">
        <path d="M891 749 L940 749 L940 773 L891 773 L891 749 Z" />
      </clipPath>
      <clipPath clipPathUnits="userSpaceOnUse" id="clipPath31">
        <path d="M870 1094 L892 1094 L892 1136 L870 1136 L870 1094 Z" />
      </clipPath>
      <clipPath clipPathUnits="userSpaceOnUse" id="clipPath32">
        <path d="M891 1094 L933 1094 L933 1121 L891 1121 L891 1094 Z" />
      </clipPath>
      <clipPath clipPathUnits="userSpaceOnUse" id="clipPath33">
        <path d="M956 9 L1080 9 L1080 61 L956 61 L956 9 Z" />
      </clipPath>
      <clipPath clipPathUnits="userSpaceOnUse" id="clipPath34">
        <path d="M956 9 L1084 9 L1084 61 L956 61 L956 9 Z" />
      </clipPath>
      <clipPath clipPathUnits="userSpaceOnUse" id="clipPath35">
        <path d="M956 9 L1083 9 L1083 61 L956 61 L956 9 Z" />
      </clipPath>
      <clipPath clipPathUnits="userSpaceOnUse" id="clipPath36">
        <path d="M1012 59 L1024 59 L1024 1471 L1012 1471 L1012 59 Z" />
      </clipPath>
      <clipPath clipPathUnits="userSpaceOnUse" id="clipPath37">
        <path d="M1007 98 L1029 98 L1029 140 L1007 140 L1007 98 Z" />
      </clipPath>
      <clipPath clipPathUnits="userSpaceOnUse" id="clipPath38">
        <path d="M1028 98 L1091 98 L1091 122 L1028 122 L1028 98 Z" />
      </clipPath>
      <clipPath clipPathUnits="userSpaceOnUse" id="clipPath39">
        <path d="M1007 209 L1029 209 L1029 251 L1007 251 L1007 209 Z" />
      </clipPath>
      <clipPath clipPathUnits="userSpaceOnUse" id="clipPath40">
        <path d="M1028 209 L1091 209 L1091 233 L1028 233 L1028 209 Z" />
      </clipPath>
      <clipPath clipPathUnits="userSpaceOnUse" id="clipPath41">
        <path d="M1007 329 L1029 329 L1029 371 L1007 371 L1007 329 Z" />
      </clipPath>
      <clipPath clipPathUnits="userSpaceOnUse" id="clipPath42">
        <path d="M1028 329 L1091 329 L1091 353 L1028 353 L1028 329 Z" />
      </clipPath>
      <clipPath clipPathUnits="userSpaceOnUse" id="clipPath43">
        <path d="M1007 569 L1029 569 L1029 611 L1007 611 L1007 569 Z" />
      </clipPath>
      <clipPath clipPathUnits="userSpaceOnUse" id="clipPath44">
        <path d="M1028 569 L1091 569 L1091 593 L1028 593 L1028 569 Z" />
      </clipPath>
      <clipPath clipPathUnits="userSpaceOnUse" id="clipPath45">
        <path d="M1007 869 L1029 869 L1029 911 L1007 911 L1007 869 Z" />
      </clipPath>
      <clipPath clipPathUnits="userSpaceOnUse" id="clipPath46">
        <path d="M1028 869 L1091 869 L1091 893 L1028 893 L1028 869 Z" />
      </clipPath>
      <clipPath clipPathUnits="userSpaceOnUse" id="clipPath47">
        <path d="M1007 989 L1029 989 L1029 1031 L1007 1031 L1007 989 Z" />
      </clipPath>
      <clipPath clipPathUnits="userSpaceOnUse" id="clipPath48">
        <path d="M1028 989 L1091 989 L1091 1013 L1028 1013 L1028 989 Z" />
      </clipPath>
      <clipPath clipPathUnits="userSpaceOnUse" id="clipPath49">
        <path d="M1007 1139 L1029 1139 L1029 1181 L1007 1181 L1007 1139 Z" />
      </clipPath>
      <clipPath clipPathUnits="userSpaceOnUse" id="clipPath50">
        <path d="M1028 1139 L1091 1139 L1091 1163 L1028 1163 L1028 1139 Z" />
      </clipPath>
      <clipPath clipPathUnits="userSpaceOnUse" id="clipPath51">
        <path d="M1007 149 L1029 149 L1029 191 L1007 191 L1007 149 Z" />
      </clipPath>
      <clipPath clipPathUnits="userSpaceOnUse" id="clipPath52">
        <path d="M1028 149 L1077 149 L1077 173 L1028 173 L1028 149 Z" />
      </clipPath>
      <clipPath clipPathUnits="userSpaceOnUse" id="clipPath53">
        <path d="M1007 262 L1029 262 L1029 304 L1007 304 L1007 262 Z" />
      </clipPath>
      <clipPath clipPathUnits="userSpaceOnUse" id="clipPath54">
        <path d="M1028 262 L1077 262 L1077 286 L1028 286 L1028 262 Z" />
      </clipPath>
      <clipPath clipPathUnits="userSpaceOnUse" id="clipPath55">
        <path d="M1007 449 L1029 449 L1029 491 L1007 491 L1007 449 Z" />
      </clipPath>
      <clipPath clipPathUnits="userSpaceOnUse" id="clipPath56">
        <path d="M1028 449 L1077 449 L1077 473 L1028 473 L1028 449 Z" />
      </clipPath>
      <clipPath clipPathUnits="userSpaceOnUse" id="clipPath57">
        <path d="M1007 629 L1029 629 L1029 671 L1007 671 L1007 629 Z" />
      </clipPath>
      <clipPath clipPathUnits="userSpaceOnUse" id="clipPath58">
        <path d="M1028 629 L1077 629 L1077 653 L1028 653 L1028 629 Z" />
      </clipPath>
      <clipPath clipPathUnits="userSpaceOnUse" id="clipPath59">
        <path d="M1007 929 L1029 929 L1029 971 L1007 971 L1007 929 Z" />
      </clipPath>
      <clipPath clipPathUnits="userSpaceOnUse" id="clipPath60">
        <path d="M1028 929 L1077 929 L1077 953 L1028 953 L1028 929 Z" />
      </clipPath>
      <clipPath clipPathUnits="userSpaceOnUse" id="clipPath61">
        <path d="M1007 1049 L1029 1049 L1029 1091 L1007 1091 L1007 1049 Z" />
      </clipPath>
      <clipPath clipPathUnits="userSpaceOnUse" id="clipPath62">
        <path d="M1028 1049 L1077 1049 L1077 1073 L1028 1073 L1028 1049 Z" />
      </clipPath>
      <clipPath clipPathUnits="userSpaceOnUse" id="clipPath63">
        <path d="M1007 1199 L1029 1199 L1029 1241 L1007 1241 L1007 1199 Z" />
      </clipPath>
      <clipPath clipPathUnits="userSpaceOnUse" id="clipPath64">
        <path d="M1028 1199 L1077 1199 L1077 1223 L1028 1223 L1028 1199 Z" />
      </clipPath>
      <clipPath clipPathUnits="userSpaceOnUse" id="clipPath65">
        <path d="M1007 1244 L1029 1244 L1029 1286 L1007 1286 L1007 1244 Z" />
      </clipPath>
      <clipPath clipPathUnits="userSpaceOnUse" id="clipPath66">
        <path d="M1028 1244 L1082 1244 L1082 1271 L1028 1271 L1028 1244 Z" />
      </clipPath>
      <clipPath clipPathUnits="userSpaceOnUse" id="clipPath67">
        <path d="M1007 1334 L1029 1334 L1029 1376 L1007 1376 L1007 1334 Z" />
      </clipPath>
      <clipPath clipPathUnits="userSpaceOnUse" id="clipPath68">
        <path d="M1028 1334 L1082 1334 L1082 1361 L1028 1361 L1028 1334 Z" />
      </clipPath>
      <clipPath clipPathUnits="userSpaceOnUse" id="clipPath69">
        <path d="M1007 1289 L1029 1289 L1029 1331 L1007 1331 L1007 1289 Z" />
      </clipPath>
      <clipPath clipPathUnits="userSpaceOnUse" id="clipPath70">
        <path d="M1028 1289 L1070 1289 L1070 1316 L1028 1316 L1028 1289 Z" />
      </clipPath>
      <clipPath clipPathUnits="userSpaceOnUse" id="clipPath71">
        <path d="M1007 1379 L1029 1379 L1029 1421 L1007 1421 L1007 1379 Z" />
      </clipPath>
      <clipPath clipPathUnits="userSpaceOnUse" id="clipPath72">
        <path d="M1028 1379 L1070 1379 L1070 1406 L1028 1406 L1028 1379 Z" />
      </clipPath>
      <clipPath clipPathUnits="userSpaceOnUse" id="clipPath73">
        <path d="M-1 -1 L1223 -1 L1223 1481 L-1 1481 L-1 -1 Z" />
      </clipPath>
      <clipPath clipPathUnits="userSpaceOnUse" id="clipPath74">
        <path d="M299 71 L709 71 L709 95 L299 95 L299 71 Z" />
      </clipPath>
      <clipPath clipPathUnits="userSpaceOnUse" id="clipPath75">
        <path d="M349 93 L361 93 L361 104 L349 104 L349 93 Z" />
      </clipPath>
      <clipPath clipPathUnits="userSpaceOnUse" id="clipPath76">
        <path d="M324 182 L567 182 L567 206 L324 206 L324 182 Z" />
      </clipPath>
      <clipPath clipPathUnits="userSpaceOnUse" id="clipPath77">
        <path d="M349 204 L361 204 L361 215 L349 215 L349 204 Z" />
      </clipPath>
      <clipPath clipPathUnits="userSpaceOnUse" id="clipPath78">
        <path d="M328 301 L547 301 L547 325 L328 325 L328 301 Z" />
      </clipPath>
      <clipPath clipPathUnits="userSpaceOnUse" id="clipPath79">
        <path d="M349 324 L361 324 L361 335 L349 335 L349 324 Z" />
      </clipPath>
      <clipPath clipPathUnits="userSpaceOnUse" id="clipPath80">
        <path d="M317 483 L661 483 L661 507 L317 507 L317 483 Z" />
      </clipPath>
      <clipPath clipPathUnits="userSpaceOnUse" id="clipPath81">
        <path d="M349 504 L361 504 L361 515 L349 515 L349 504 Z" />
      </clipPath>
      <clipPath clipPathUnits="userSpaceOnUse" id="clipPath82">
        <path d="M331 542 L517 542 L517 566 L331 566 L331 542 Z" />
      </clipPath>
      <clipPath clipPathUnits="userSpaceOnUse" id="clipPath83">
        <path d="M349 564 L361 564 L361 575 L349 575 L349 564 Z" />
      </clipPath>
      <clipPath clipPathUnits="userSpaceOnUse" id="clipPath84">
        <path d="M355 635 L860 635 L860 693 L355 693 L355 635 Z" />
      </clipPath>
      <clipPath clipPathUnits="userSpaceOnUse" id="clipPath85">
        <path d="M355 635 L861 635 L861 693 L355 693 L355 635 Z" />
      </clipPath>
      <clipPath clipPathUnits="userSpaceOnUse" id="clipPath86">
        <path d="M349 684 L361 684 L361 695 L349 695 L349 684 Z" />
      </clipPath>
      <clipPath clipPathUnits="userSpaceOnUse" id="clipPath87">
        <path d="M318 782 L662 782 L662 806 L318 806 L318 782 Z" />
      </clipPath>
      <clipPath clipPathUnits="userSpaceOnUse" id="clipPath88">
        <path d="M349 804 L361 804 L361 815 L349 815 L349 804 Z" />
      </clipPath>
      <clipPath clipPathUnits="userSpaceOnUse" id="clipPath89">
        <path d="M318 842 L604 842 L604 866 L318 866 L318 842 Z" />
      </clipPath>
      <clipPath clipPathUnits="userSpaceOnUse" id="clipPath90">
        <path d="M349 864 L361 864 L361 875 L349 875 L349 864 Z" />
      </clipPath>
      <clipPath clipPathUnits="userSpaceOnUse" id="clipPath91">
        <path d="M201 967 L1162 967 L1162 991 L201 991 L201 967 Z" />
      </clipPath>
      <clipPath clipPathUnits="userSpaceOnUse" id="clipPath92">
        <path d="M349 984 L361 984 L361 995 L349 995 L349 984 Z" />
      </clipPath>
      <clipPath clipPathUnits="userSpaceOnUse" id="clipPath93">
        <path d="M148 1112 L689 1112 L689 1136 L148 1136 L148 1112 Z" />
      </clipPath>
      <clipPath clipPathUnits="userSpaceOnUse" id="clipPath94">
        <path d="M349 1134 L361 1134 L361 1145 L349 1145 L349 1134 Z" />
      </clipPath>
      <clipPath clipPathUnits="userSpaceOnUse" id="clipPath95">
        <path d="M305 123 L681 123 L681 147 L305 147 L305 123 Z" />
      </clipPath>
      <clipPath clipPathUnits="userSpaceOnUse" id="clipPath96">
        <path d="M999 144 L1011 144 L1011 155 L999 155 L999 144 Z" />
      </clipPath>
      <clipPath clipPathUnits="userSpaceOnUse" id="clipPath97">
        <path d="M308 237 L661 237 L661 261 L308 261 L308 237 Z" />
      </clipPath>
      <clipPath clipPathUnits="userSpaceOnUse" id="clipPath98">
        <path d="M999 257 L1011 257 L1011 268 L999 268 L999 257 Z" />
      </clipPath>
      <clipPath clipPathUnits="userSpaceOnUse" id="clipPath99">
        <path d="M249 363 L1077 363 L1077 387 L249 387 L249 363 Z" />
      </clipPath>
      <clipPath clipPathUnits="userSpaceOnUse" id="clipPath100">
        <path d="M862 384 L874 384 L874 395 L862 395 L862 384 Z" />
      </clipPath>
      <clipPath clipPathUnits="userSpaceOnUse" id="clipPath101">
        <path d="M281 421 L835 421 L835 445 L281 445 L281 421 Z" />
      </clipPath>
      <clipPath clipPathUnits="userSpaceOnUse" id="clipPath102">
        <path d="M999 444 L1011 444 L1011 455 L999 455 L999 444 Z" />
      </clipPath>
      <clipPath clipPathUnits="userSpaceOnUse" id="clipPath103">
        <path d="M300 602 L738 602 L738 626 L300 626 L300 602 Z" />
      </clipPath>
      <clipPath clipPathUnits="userSpaceOnUse" id="clipPath104">
        <path d="M999 624 L1011 624 L1011 635 L999 635 L999 624 Z" />
      </clipPath>
      <clipPath clipPathUnits="userSpaceOnUse" id="clipPath105">
        <path d="M239 725 L1194 725 L1194 749 L239 749 L239 725 Z" />
      </clipPath>
      <clipPath clipPathUnits="userSpaceOnUse" id="clipPath106">
        <path d="M862 744 L874 744 L874 755 L862 755 L862 744 Z" />
      </clipPath>
      <clipPath clipPathUnits="userSpaceOnUse" id="clipPath107">
        <path d="M296 903 L745 903 L745 927 L296 927 L296 903 Z" />
      </clipPath>
      <clipPath clipPathUnits="userSpaceOnUse" id="clipPath108">
        <path d="M999 924 L1011 924 L1011 935 L999 935 L999 924 Z" />
      </clipPath>
      <clipPath clipPathUnits="userSpaceOnUse" id="clipPath109">
        <path d="M291 1022 L770 1022 L770 1046 L291 1046 L291 1022 Z" />
      </clipPath>
      <clipPath clipPathUnits="userSpaceOnUse" id="clipPath110">
        <path d="M999 1044 L1011 1044 L1011 1055 L999 1055 L999 1044 Z" />
      </clipPath>
      <clipPath clipPathUnits="userSpaceOnUse" id="clipPath111">
        <path d="M233 1171 L738 1171 L738 1195 L233 1195 L233 1171 Z" />
      </clipPath>
      <clipPath clipPathUnits="userSpaceOnUse" id="clipPath112">
        <path d="M999 1194 L1011 1194 L1011 1205 L999 1205 L999 1194 Z" />
      </clipPath>
      <clipPath clipPathUnits="userSpaceOnUse" id="clipPath113">
        <path d="M445 1222 L917 1222 L917 1249 L445 1249 L445 1222 Z" />
      </clipPath>
      <clipPath clipPathUnits="userSpaceOnUse" id="clipPath114">
        <path d="M349 1240 L361 1240 L361 1251 L349 1251 L349 1240 Z" />
      </clipPath>
      <clipPath clipPathUnits="userSpaceOnUse" id="clipPath115">
        <path d="M604 1312 L758 1312 L758 1339 L604 1339 L604 1312 Z" />
      </clipPath>
      <clipPath clipPathUnits="userSpaceOnUse" id="clipPath116">
        <path d="M349 1330 L361 1330 L361 1341 L349 1341 L349 1330 Z" />
      </clipPath>
      <clipPath clipPathUnits="userSpaceOnUse" id="clipPath117">
        <path d="M23 1072 L1203 1072 L1203 1099 L23 1099 L23 1072 Z" />
      </clipPath>
      <clipPath clipPathUnits="userSpaceOnUse" id="clipPath118">
        <path d="M862 1090 L874 1090 L874 1101 L862 1101 L862 1090 Z" />
      </clipPath>
      <clipPath clipPathUnits="userSpaceOnUse" id="clipPath119">
        <path d="M449 1267 L914 1267 L914 1294 L449 1294 L449 1267 Z" />
      </clipPath>
      <clipPath clipPathUnits="userSpaceOnUse" id="clipPath120">
        <path d="M999 1285 L1011 1285 L1011 1296 L999 1296 L999 1285 Z" />
      </clipPath>
      <clipPath clipPathUnits="userSpaceOnUse" id="clipPath121">
        <path d="M525 1357 L838 1357 L838 1384 L525 1384 L525 1357 Z" />
      </clipPath>
      <clipPath clipPathUnits="userSpaceOnUse" id="clipPath122">
        <path d="M999 1375 L1011 1375 L1011 1386 L999 1386 L999 1375 Z" />
      </clipPath>
    </defs>
    <g font-size="19" fill="rgb(238,201,142)" font-family="'Lucida Sans'" stroke-linejoin="round" stroke="rgb(238,201,142)" stroke-width="0" stroke-miterlimit="0">
      <rect x="316" y="10" clip-path="url(#clipPath1)" width="70" height="30" stroke="none" />
    </g>
    <g stroke-width="0.1" font-size="19" font-family="'Lucida Sans'" stroke-linecap="butt">
      <rect x="316" y="10" clip-path="url(#clipPath1)" fill="none" width="69" height="29" />
      <text xml:space="preserve" x="317" y="33" clip-path="url(#clipPath2)" stroke="none">System</text>
      <line clip-path="url(#clipPath3)" fill="none" x1="350" x2="350" y1="40" y2="1470" stroke-dasharray="10,10" stroke-width="1.1" />
    </g>
    <g stroke-linecap="butt" font-size="19" fill="rgb(255,245,181)" font-family="'Lucida Sans'" stroke-dasharray="10,10" stroke="rgb(255,245,181)" stroke-width="1.1">
      <rect x="416" y="10" clip-path="url(#clipPath4)" width="120" height="50" stroke="none" />
    </g>
    <g stroke-width="0.1" font-size="19" font-family="'Lucida Sans'" stroke-linecap="butt">
      <rect x="416" y="10" clip-path="url(#clipPath4)" fill="none" width="119" height="49" />
      <text xml:space="preserve" x="426" y="21" clip-path="url(#clipPath5)" stroke="none">theCreator</text>
      <text xml:space="preserve" x="470" y="43" clip-path="url(#clipPath6)" stroke="none">: </text>
      <text xml:space="preserve" x="420" y="65" clip-path="url(#clipPath5)" stroke="none">actMsrCre...</text>
      <line clip-path="url(#clipPath7)" fill="none" x1="475" x2="475" y1="60" y2="1470" stroke-dasharray="10,10" stroke-width="1.1" />
    </g>
    <g stroke-linecap="butt" font-size="19" fill="rgb(255,245,181)" font-family="'Lucida Sans'" stroke-dasharray="10,10" stroke="rgb(255,245,181)" stroke-width="1.1">
      <rect x="546" y="10" clip-path="url(#clipPath8)" width="119" height="50" stroke="none" />
    </g>
    <g stroke-width="0.1" font-size="19" font-family="'Lucida Sans'" stroke-linecap="butt">
      <rect x="546" y="10" clip-path="url(#clipPath8)" fill="none" width="118" height="49" />
      <text xml:space="preserve" x="564" y="21" clip-path="url(#clipPath9)" stroke="none">theClock</text>
      <text xml:space="preserve" x="599" y="43" clip-path="url(#clipPath10)" stroke="none">: </text>
      <text xml:space="preserve" x="548" y="65" clip-path="url(#clipPath11)" stroke="none">actActivator</text>
      <line clip-path="url(#clipPath12)" fill="none" x1="604" x2="604" y1="60" y2="1470" stroke-dasharray="10,10" stroke-width="1.1" />
    </g>
    <g stroke-linecap="butt" font-size="19" fill="rgb(39,76,114)" font-family="'Lucida Sans'" stroke-dasharray="10,10" stroke="rgb(39,76,114)" stroke-width="1.1">
      <rect x="595" y="510" clip-path="url(#clipPath13)" width="20" height="40" stroke="none" />
      <rect x="595" y="510" clip-path="url(#clipPath13)" fill="none" width="19" stroke-dasharray="none" height="39" stroke-width="0.1" />
    </g>
    <g stroke-width="0.1" font-size="19" font-family="'Lucida Sans'" stroke-linecap="butt">
      <text xml:space="preserve" x="616" y="529" clip-path="url(#clipPath14)" stroke="none">out04</text>
      <rect x="595" y="810" clip-path="url(#clipPath15)" fill="rgb(39,76,114)" width="20" height="40" stroke="none" />
      <rect x="595" y="810" clip-path="url(#clipPath15)" fill="none" width="19" height="39" stroke="rgb(39,76,114)" />
      <text xml:space="preserve" x="616" y="829" clip-path="url(#clipPath16)" stroke="none">out07</text>
      <rect x="675" y="10" clip-path="url(#clipPath17)" fill="rgb(255,245,181)" width="130" height="50" stroke="none" />
      <rect x="675" y="10" clip-path="url(#clipPath17)" fill="none" width="129" height="49" />
      <text xml:space="preserve" x="724" y="21" clip-path="url(#clipPath18)" stroke="none">bill</text>
      <text xml:space="preserve" x="733" y="43" clip-path="url(#clipPath18)" stroke="none">: </text>
      <text xml:space="preserve" x="678" y="65" clip-path="url(#clipPath19)" stroke="none">actAdminis...</text>
      <line clip-path="url(#clipPath20)" fill="none" x1="739" x2="739" y1="60" y2="1470" stroke-dasharray="10,10" stroke-width="1.1" />
    </g>
    <g stroke-linecap="butt" font-size="19" fill="rgb(255,245,181)" font-family="'Lucida Sans'" stroke-dasharray="10,10" stroke="rgb(255,245,181)" stroke-width="1.1">
      <rect x="815" y="10" clip-path="url(#clipPath21)" width="132" height="50" stroke="none" />
    </g>
    <g stroke-width="0.1" font-size="19" font-family="'Lucida Sans'" stroke-linecap="butt">
      <rect x="815" y="10" clip-path="url(#clipPath21)" fill="none" width="131" height="49" />
      <text xml:space="preserve" x="854" y="21" clip-path="url(#clipPath22)" stroke="none">tango</text>
      <text xml:space="preserve" x="875" y="43" clip-path="url(#clipPath23)" stroke="none">: </text>
      <text xml:space="preserve" x="824" y="65" clip-path="url(#clipPath22)" stroke="none">actComCo...</text>
      <line clip-path="url(#clipPath24)" fill="none" x1="880" x2="880" y1="60" y2="1470" stroke-dasharray="10,10" stroke-width="1.1" />
    </g>
    <g stroke-linecap="butt" font-size="19" fill="rgb(39,76,114)" font-family="'Lucida Sans'" stroke-dasharray="10,10" stroke="rgb(39,76,114)" stroke-width="1.1">
      <rect x="871" y="690" clip-path="url(#clipPath25)" width="20" height="40" stroke="none" />
      <rect x="871" y="690" clip-path="url(#clipPath25)" fill="none" width="19" stroke-dasharray="none" height="39" stroke-width="0.1" />
    </g>
    <g stroke-width="0.1" font-size="19" font-family="'Lucida Sans'" stroke-linecap="butt">
      <text xml:space="preserve" x="892" y="709" clip-path="url(#clipPath26)" stroke="none">out06</text>
      <rect x="871" y="390" clip-path="url(#clipPath27)" fill="rgb(194,239,255)" width="20" height="40" stroke="none" />
      <rect x="871" y="390" clip-path="url(#clipPath27)" fill="none" width="19" height="39" stroke="rgb(194,239,255)" />
      <text xml:space="preserve" x="892" y="409" clip-path="url(#clipPath28)" stroke="none">in03</text>
      <rect x="871" y="750" clip-path="url(#clipPath29)" fill="rgb(194,239,255)" width="20" height="40" stroke="none" />
      <rect x="871" y="750" clip-path="url(#clipPath29)" fill="none" width="19" height="39" stroke="rgb(194,239,255)" />
      <text xml:space="preserve" x="892" y="769" clip-path="url(#clipPath30)" stroke="none">in06</text>
    </g>
    <g fill="rgb(194,239,255)" stroke-width="0.1" font-family="'Segoe UI'" stroke-linecap="butt" stroke="rgb(194,239,255)">
      <rect x="871" y="1095" clip-path="url(#clipPath31)" width="20" height="40" stroke="none" />
      <rect x="871" y="1095" clip-path="url(#clipPath31)" fill="none" width="19" height="39" />
      <text x="892" font-size="19" y="1116" clip-path="url(#clipPath32)" fill="black" stroke="none" xml:space="preserve">in09</text>
    </g>
    <g stroke-linecap="butt" font-size="19" fill="rgb(255,245,181)" font-family="'Lucida Sans'" stroke="rgb(255,245,181)" stroke-width="0.1">
      <rect x="957" y="10" clip-path="url(#clipPath33)" width="122" height="50" stroke="none" />
      <rect x="957" y="10" clip-path="url(#clipPath33)" fill="none" width="121" height="49" stroke="black" />
      <text x="993" y="21" clip-path="url(#clipPath34)" fill="black" stroke="none" xml:space="preserve">steve</text>
      <text x="1011" y="43" clip-path="url(#clipPath35)" fill="black" stroke="none" xml:space="preserve">: </text>
      <text x="957" y="65" clip-path="url(#clipPath34)" fill="black" stroke="none" xml:space="preserve">actCoordin...</text>
    </g>
    <g stroke-width="1.1" font-size="19" stroke-dasharray="10,10" font-family="'Lucida Sans'" stroke-linecap="butt">
      <line clip-path="url(#clipPath36)" fill="none" x1="1017" x2="1017" y1="60" y2="1470" />
      <rect x="1008" y="99" clip-path="url(#clipPath37)" fill="rgb(39,76,114)" width="20" height="40" stroke="none" />
    </g>
    <g stroke-linecap="butt" font-size="19" fill="rgb(39,76,114)" font-family="'Lucida Sans'" stroke="rgb(39,76,114)" stroke-width="0.1">
      <rect x="1008" y="99" clip-path="url(#clipPath37)" fill="none" width="19" height="39" />
      <text x="1029" y="118" clip-path="url(#clipPath38)" fill="black" stroke="none" xml:space="preserve">out01</text>
      <rect x="1008" y="210" clip-path="url(#clipPath39)" width="20" height="40" stroke="none" />
      <rect x="1008" y="210" clip-path="url(#clipPath39)" fill="none" width="19" height="39" />
      <text x="1029" y="229" clip-path="url(#clipPath40)" fill="black" stroke="none" xml:space="preserve">out02</text>
      <rect x="1008" y="330" clip-path="url(#clipPath41)" width="20" height="40" stroke="none" />
      <rect x="1008" y="330" clip-path="url(#clipPath41)" fill="none" width="19" height="39" />
      <text x="1029" y="349" clip-path="url(#clipPath42)" fill="black" stroke="none" xml:space="preserve">out03</text>
      <rect x="1008" y="570" clip-path="url(#clipPath43)" width="20" height="40" stroke="none" />
      <rect x="1008" y="570" clip-path="url(#clipPath43)" fill="none" width="19" height="39" />
      <text x="1029" y="589" clip-path="url(#clipPath44)" fill="black" stroke="none" xml:space="preserve">out05</text>
      <rect x="1008" y="870" clip-path="url(#clipPath45)" width="20" height="40" stroke="none" />
      <rect x="1008" y="870" clip-path="url(#clipPath45)" fill="none" width="19" height="39" />
      <text x="1029" y="889" clip-path="url(#clipPath46)" fill="black" stroke="none" xml:space="preserve">out08</text>
      <rect x="1008" y="990" clip-path="url(#clipPath47)" width="20" height="40" stroke="none" />
      <rect x="1008" y="990" clip-path="url(#clipPath47)" fill="none" width="19" height="39" />
      <text x="1029" y="1009" clip-path="url(#clipPath48)" fill="black" stroke="none" xml:space="preserve">out09</text>
      <rect x="1008" y="1140" clip-path="url(#clipPath49)" width="20" height="40" stroke="none" />
      <rect x="1008" y="1140" clip-path="url(#clipPath49)" fill="none" width="19" height="39" />
      <text x="1029" y="1159" clip-path="url(#clipPath50)" fill="black" stroke="none" xml:space="preserve">out10</text>
      <rect x="1008" y="150" clip-path="url(#clipPath51)" fill="rgb(194,239,255)" width="20" height="40" stroke="none" />
      <rect x="1008" y="150" clip-path="url(#clipPath51)" fill="none" width="19" height="39" stroke="rgb(194,239,255)" />
      <text x="1029" y="169" clip-path="url(#clipPath52)" fill="black" stroke="none" xml:space="preserve">in01</text>
      <rect x="1008" y="263" clip-path="url(#clipPath53)" fill="rgb(194,239,255)" width="20" height="40" stroke="none" />
      <rect x="1008" y="263" clip-path="url(#clipPath53)" fill="none" width="19" height="39" stroke="rgb(194,239,255)" />
      <text x="1029" y="282" clip-path="url(#clipPath54)" fill="black" stroke="none" xml:space="preserve">in02</text>
      <rect x="1008" y="450" clip-path="url(#clipPath55)" fill="rgb(194,239,255)" width="20" height="40" stroke="none" />
      <rect x="1008" y="450" clip-path="url(#clipPath55)" fill="none" width="19" height="39" stroke="rgb(194,239,255)" />
      <text x="1029" y="469" clip-path="url(#clipPath56)" fill="black" stroke="none" xml:space="preserve">in04</text>
      <rect x="1008" y="630" clip-path="url(#clipPath57)" fill="rgb(194,239,255)" width="20" height="40" stroke="none" />
      <rect x="1008" y="630" clip-path="url(#clipPath57)" fill="none" width="19" height="39" stroke="rgb(194,239,255)" />
      <text x="1029" y="649" clip-path="url(#clipPath58)" fill="black" stroke="none" xml:space="preserve">in05</text>
      <rect x="1008" y="930" clip-path="url(#clipPath59)" fill="rgb(194,239,255)" width="20" height="40" stroke="none" />
      <rect x="1008" y="930" clip-path="url(#clipPath59)" fill="none" width="19" height="39" stroke="rgb(194,239,255)" />
      <text x="1029" y="949" clip-path="url(#clipPath60)" fill="black" stroke="none" xml:space="preserve">in07</text>
      <rect x="1008" y="1050" clip-path="url(#clipPath61)" fill="rgb(194,239,255)" width="20" height="40" stroke="none" />
      <rect x="1008" y="1050" clip-path="url(#clipPath61)" fill="none" width="19" height="39" stroke="rgb(194,239,255)" />
      <text x="1029" y="1069" clip-path="url(#clipPath62)" fill="black" stroke="none" xml:space="preserve">in08</text>
      <rect x="1008" y="1200" clip-path="url(#clipPath63)" fill="rgb(194,239,255)" width="20" height="40" stroke="none" />
      <rect x="1008" y="1200" clip-path="url(#clipPath63)" fill="none" width="19" height="39" stroke="rgb(194,239,255)" />
      <text x="1029" y="1219" clip-path="url(#clipPath64)" fill="black" stroke="none" xml:space="preserve">in10</text>
      <rect x="1008" y="1245" clip-path="url(#clipPath65)" width="20" height="40" stroke="none" />
      <rect x="1008" y="1245" clip-path="url(#clipPath65)" fill="none" width="19" height="39" />
      <text x="1029" y="1266" clip-path="url(#clipPath66)" fill="black" font-family="'Segoe UI'" stroke="none" xml:space="preserve">out11</text>
      <rect x="1008" y="1335" clip-path="url(#clipPath67)" width="20" height="40" stroke="none" />
      <rect x="1008" y="1335" clip-path="url(#clipPath67)" fill="none" width="19" height="39" />
      <text x="1029" y="1356" clip-path="url(#clipPath68)" fill="black" font-family="'Segoe UI'" stroke="none" xml:space="preserve">out12</text>
    </g>
    <g fill="rgb(194,239,255)" stroke-width="0.1" font-family="'Segoe UI'" stroke-linecap="butt" stroke="rgb(194,239,255)">
      <rect x="1008" y="1290" clip-path="url(#clipPath69)" width="20" height="40" stroke="none" />
      <rect x="1008" y="1290" clip-path="url(#clipPath69)" fill="none" width="19" height="39" />
      <text x="1029" font-size="19" y="1311" clip-path="url(#clipPath70)" fill="black" stroke="none" xml:space="preserve">in11</text>
      <rect x="1008" y="1380" clip-path="url(#clipPath71)" width="20" height="40" stroke="none" />
      <rect x="1008" y="1380" clip-path="url(#clipPath71)" fill="none" width="19" height="39" />
      <text x="1029" font-size="19" y="1401" clip-path="url(#clipPath72)" fill="black" stroke="none" xml:space="preserve">in12</text>
    </g>
    <g stroke-linecap="butt" font-size="19" fill="rgb(136,136,136)" font-family="'Lucida Sans'" stroke="rgb(136,136,136)" stroke-width="2.1">
      <line clip-path="url(#clipPath73)" fill="none" x1="1008" x2="351" y1="98" y2="98" />
      <text x="300" y="91" clip-path="url(#clipPath74)" fill="black" stroke="none" xml:space="preserve">oeLogin("steve","pwdMessirExcalibur2017")</text>
      <line clip-path="url(#clipPath75)" fill="none" x1="358" x2="351" y1="95" y2="98" />
      <line clip-path="url(#clipPath75)" fill="none" x1="351" x2="358" y1="98" y2="101" />
      <line clip-path="url(#clipPath73)" fill="none" x1="1008" x2="351" y1="209" y2="209" />
      <text x="325" y="202" clip-path="url(#clipPath76)" fill="black" stroke="none" xml:space="preserve">oeGetCrisisSet("pending")</text>
      <line clip-path="url(#clipPath77)" fill="none" x1="358" x2="351" y1="206" y2="209" />
      <line clip-path="url(#clipPath77)" fill="none" x1="351" x2="358" y1="209" y2="212" />
      <line clip-path="url(#clipPath73)" fill="none" x1="1008" x2="351" y1="329" y2="329" />
      <text x="329" y="321" clip-path="url(#clipPath78)" fill="black" stroke="none" xml:space="preserve">oeSetCrisisHandler("1")</text>
      <line clip-path="url(#clipPath79)" fill="none" x1="358" x2="351" y1="326" y2="329" />
      <line clip-path="url(#clipPath79)" fill="none" x1="351" x2="358" y1="329" y2="332" />
      <line clip-path="url(#clipPath73)" fill="none" x1="595" x2="351" y1="509" y2="509" />
      <text x="318" y="503" clip-path="url(#clipPath80)" fill="black" stroke="none" xml:space="preserve">oeSetClock("2017:11:26 - 10:45:00")</text>
      <line clip-path="url(#clipPath81)" fill="none" x1="358" x2="351" y1="506" y2="509" />
      <line clip-path="url(#clipPath81)" fill="none" x1="351" x2="358" y1="509" y2="512" />
      <line clip-path="url(#clipPath73)" fill="none" x1="1008" x2="351" y1="569" y2="569" />
      <text x="332" y="562" clip-path="url(#clipPath82)" fill="black" stroke="none" xml:space="preserve">oeValidateAlert("1")</text>
      <line clip-path="url(#clipPath83)" fill="none" x1="358" x2="351" y1="566" y2="569" />
      <line clip-path="url(#clipPath83)" fill="none" x1="351" x2="358" y1="569" y2="572" />
      <line clip-path="url(#clipPath73)" fill="none" x1="871" x2="351" y1="689" y2="689" />
      <text x="404" y="661" clip-path="url(#clipPath84)" fill="black" stroke="none" xml:space="preserve">oeAlert("witness","2017:11:26","10:20:00","</text>
      <text x="358" y="683" clip-path="url(#clipPath85)" fill="black" stroke="none" xml:space="preserve">+3524666445000","49.627095:6.160251","A car cr...</text>
      <line clip-path="url(#clipPath86)" fill="none" x1="358" x2="351" y1="686" y2="689" />
      <line clip-path="url(#clipPath86)" fill="none" x1="351" x2="358" y1="689" y2="692" />
      <line clip-path="url(#clipPath73)" fill="none" x1="595" x2="351" y1="809" y2="809" />
      <text x="319" y="802" clip-path="url(#clipPath87)" fill="black" stroke="none" xml:space="preserve">oeSetClock("2017:11:26 - 12:45:00")</text>
      <line clip-path="url(#clipPath88)" fill="none" x1="358" x2="351" y1="806" y2="809" />
      <line clip-path="url(#clipPath88)" fill="none" x1="351" x2="358" y1="809" y2="812" />
      <line clip-path="url(#clipPath73)" fill="none" x1="1008" x2="351" y1="869" y2="869" />
      <text x="319" y="862" clip-path="url(#clipPath89)" fill="black" stroke="none" xml:space="preserve">oeSetCrisisStatus("1","solved")</text>
      <line clip-path="url(#clipPath90)" fill="none" x1="358" x2="351" y1="866" y2="869" />
      <line clip-path="url(#clipPath90)" fill="none" x1="351" x2="358" y1="869" y2="872" />
      <line clip-path="url(#clipPath73)" fill="none" x1="1008" x2="351" y1="989" y2="989" />
      <text x="202" y="987" clip-path="url(#clipPath91)" fill="black" stroke="none" xml:space="preserve">oeReportOnCrisis("1","3 victims sent to hospital, 2 cars evacuated and 4 rescue unit mobilized","true")</text>
      <line clip-path="url(#clipPath92)" fill="none" x1="358" x2="351" y1="986" y2="989" />
      <line clip-path="url(#clipPath92)" fill="none" x1="351" x2="358" y1="989" y2="992" />
      <line clip-path="url(#clipPath73)" fill="none" x1="1008" x2="351" y1="1139" y2="1139" />
      <text x="149" y="1132" clip-path="url(#clipPath93)" fill="black" stroke="none" xml:space="preserve">oeAddFamilyMemberOnCrisis("1","+3524666445001","2")</text>
      <line clip-path="url(#clipPath94)" fill="none" x1="358" x2="351" y1="1136" y2="1139" />
      <line clip-path="url(#clipPath94)" fill="none" x1="351" x2="358" y1="1139" y2="1142" />
      <line clip-path="url(#clipPath73)" fill="none" x1="1008" x2="351" y1="149" y2="149" stroke-dasharray="5,5" />
      <text x="306" y="143" clip-path="url(#clipPath95)" fill="black" stroke-dasharray="5,5" stroke="none" xml:space="preserve">ieMessage(You are logged ! Welcome ...)</text>
      <line clip-path="url(#clipPath96)" fill="none" x1="1001" x2="1008" y1="152" y2="149" />
      <line clip-path="url(#clipPath96)" fill="none" x1="1008" x2="1001" y1="149" y2="146" />
      <line clip-path="url(#clipPath73)" fill="none" x1="1008" x2="351" y1="262" y2="262" stroke-dasharray="5,5" />
      <text x="309" y="257" clip-path="url(#clipPath97)" fill="black" stroke-dasharray="5,5" stroke="none" xml:space="preserve">ieSendACrisis(crisis with ID 1 details)</text>
      <line clip-path="url(#clipPath98)" fill="none" x1="1001" x2="1008" y1="265" y2="262" />
      <line clip-path="url(#clipPath98)" fill="none" x1="1008" x2="1001" y1="262" y2="259" />
      <line clip-path="url(#clipPath73)" fill="none" x1="871" x2="351" y1="389" y2="389" stroke-dasharray="5,5" />
      <text x="250" y="383" clip-path="url(#clipPath99)" fill="black" stroke-dasharray="5,5" stroke="none" xml:space="preserve">ieSmsSend(+3524666445252,The handling of your alert by our services is in progress !)</text>
      <line clip-path="url(#clipPath100)" fill="none" x1="864" x2="871" y1="392" y2="389" />
      <line clip-path="url(#clipPath100)" fill="none" x1="871" x2="864" y1="389" y2="386" />
      <line clip-path="url(#clipPath73)" fill="none" x1="1008" x2="351" y1="449" y2="449" stroke-dasharray="5,5" />
      <text x="282" y="441" clip-path="url(#clipPath101)" fill="black" stroke-dasharray="5,5" stroke="none" xml:space="preserve">ieMessage(You are now considered as handling the crisis !)</text>
      <line clip-path="url(#clipPath102)" fill="none" x1="1001" x2="1008" y1="452" y2="449" />
      <line clip-path="url(#clipPath102)" fill="none" x1="1008" x2="1001" y1="449" y2="446" />
      <line clip-path="url(#clipPath73)" fill="none" x1="1008" x2="351" y1="629" y2="629" stroke-dasharray="5,5" />
      <text x="301" y="622" clip-path="url(#clipPath103)" fill="black" stroke-dasharray="5,5" stroke="none" xml:space="preserve">ieMessage(The Alert is now declared as valid !)</text>
      <line clip-path="url(#clipPath104)" fill="none" x1="1001" x2="1008" y1="632" y2="629" />
      <line clip-path="url(#clipPath104)" fill="none" x1="1008" x2="1001" y1="629" y2="626" />
      <line clip-path="url(#clipPath73)" fill="none" x1="871" x2="351" y1="749" y2="749" stroke-dasharray="5,5" />
      <text x="240" y="745" clip-path="url(#clipPath105)" fill="black" stroke-dasharray="5,5" stroke="none" xml:space="preserve">ieSmsSend(+3524666445000,Your alert has been registered. We will handle it and keep you informed)</text>
      <line clip-path="url(#clipPath106)" fill="none" x1="864" x2="871" y1="752" y2="749" />
      <line clip-path="url(#clipPath106)" fill="none" x1="871" x2="864" y1="749" y2="746" />
      <line clip-path="url(#clipPath73)" fill="none" x1="1008" x2="351" y1="929" y2="929" stroke-dasharray="5,5" />
      <text x="297" y="923" clip-path="url(#clipPath107)" fill="black" stroke-dasharray="5,5" stroke="none" xml:space="preserve">ieMessage(The crisis status has been updated !)</text>
      <line clip-path="url(#clipPath108)" fill="none" x1="1001" x2="1008" y1="932" y2="929" />
      <line clip-path="url(#clipPath108)" fill="none" x1="1008" x2="1001" y1="929" y2="926" />
      <line clip-path="url(#clipPath73)" fill="none" x1="1008" x2="351" y1="1049" y2="1049" stroke-dasharray="5,5" />
      <text x="292" y="1042" clip-path="url(#clipPath109)" fill="black" stroke-dasharray="5,5" stroke="none" xml:space="preserve">ieMessage(The crisis comment has been updated !)</text>
      <line clip-path="url(#clipPath110)" fill="none" x1="1001" x2="1008" y1="1052" y2="1049" />
      <line clip-path="url(#clipPath110)" fill="none" x1="1008" x2="1001" y1="1049" y2="1046" />
      <line clip-path="url(#clipPath73)" fill="none" x1="1008" x2="351" y1="1199" y2="1199" stroke-dasharray="5,5" />
      <text x="234" y="1191" clip-path="url(#clipPath111)" fill="black" stroke-dasharray="5,5" stroke="none" xml:space="preserve">ieMessage(The crisis family member has been added!)</text>
      <line clip-path="url(#clipPath112)" fill="none" x1="1001" x2="1008" y1="1202" y2="1199" />
      <line clip-path="url(#clipPath112)" fill="none" x1="1008" x2="1001" y1="1199" y2="1196" />
      <line clip-path="url(#clipPath73)" fill="none" x1="1008" x2="351" y1="1245" y2="1245" />
      <text x="446" y="1244" clip-path="url(#clipPath113)" fill="black" font-family="'Segoe UI'" stroke="none" xml:space="preserve">oeDeleteFamilyMemberOnCrisis("1","+3524666445001")</text>
      <line clip-path="url(#clipPath114)" fill="none" x1="358" x2="351" y1="1242" y2="1245" />
      <line clip-path="url(#clipPath114)" fill="none" x1="351" x2="358" y1="1245" y2="1248" />
      <line clip-path="url(#clipPath73)" fill="none" x1="1008" x2="351" y1="1335" y2="1335" />
      <text x="605" y="1334" clip-path="url(#clipPath115)" fill="black" font-family="'Segoe UI'" stroke="none" xml:space="preserve">oeCloseCrisis("1")</text>
      <line clip-path="url(#clipPath116)" fill="none" x1="358" x2="351" y1="1332" y2="1335" />
      <line clip-path="url(#clipPath116)" fill="none" x1="351" x2="358" y1="1335" y2="1338" />
      <line clip-path="url(#clipPath73)" fill="none" x1="871" x2="351" y1="1095" y2="1095" stroke-dasharray="5,5" />
    </g>
    <g stroke-width="2.1" font-size="19" stroke-dasharray="5,5" font-family="'Segoe UI'" stroke-linecap="butt">
      <text xml:space="preserve" x="24" y="1094" clip-path="url(#clipPath117)" stroke="none">ieSmsSend(+3524666445000,The crisis report changed! New Report: 3 victims sent to hospital, 2 cars evacuated and 4 rescue unit mobilized)</text>
      <line clip-path="url(#clipPath118)" fill="none" x1="864" x2="871" y1="1098" y2="1095" stroke-dasharray="none" stroke="rgb(136,136,136)" />
      <line clip-path="url(#clipPath118)" fill="none" x1="871" x2="864" y1="1095" y2="1092" stroke-dasharray="none" stroke="rgb(136,136,136)" />
      <line clip-path="url(#clipPath73)" fill="none" x1="1008" x2="351" y1="1290" y2="1290" stroke="rgb(136,136,136)" />
      <text xml:space="preserve" x="450" y="1289" clip-path="url(#clipPath119)" stroke="none">ieMessage(The crisis family member has been deleted)</text>
      <line clip-path="url(#clipPath120)" fill="none" x1="1001" x2="1008" y1="1293" y2="1290" stroke-dasharray="none" stroke="rgb(136,136,136)" />
      <line clip-path="url(#clipPath120)" fill="none" x1="1008" x2="1001" y1="1290" y2="1287" stroke-dasharray="none" stroke="rgb(136,136,136)" />
      <line clip-path="url(#clipPath73)" fill="none" x1="1008" x2="351" y1="1380" y2="1380" stroke="rgb(136,136,136)" />
      <text xml:space="preserve" x="526" y="1379" clip-path="url(#clipPath121)" stroke="none">ieMessage(The crisis is now closed !)</text>
      <line clip-path="url(#clipPath122)" fill="none" x1="1001" x2="1008" y1="1383" y2="1380" stroke-dasharray="none" stroke="rgb(136,136,136)" />
      <line clip-path="url(#clipPath122)" fill="none" x1="1008" x2="1001" y1="1380" y2="1377" stroke-dasharray="none" stroke="rgb(136,136,136)" />
    </g>
  </g>
</svg>

